<?xml version="1.0" encoding="UTF-8" standalone="no"?><!DOCTYPE svg PUBLIC "-//W3C//DTD SVG 1.1//EN" "http://www.w3.org/Graphics/SVG/1.1/DTD/svg11.dtd"><svg width="100%" height="100%" viewBox="0 0 32 32" version="1.1" xmlns="http://www.w3.org/2000/svg" xmlns:xlink="http://www.w3.org/1999/xlink" xml:space="preserve" xmlns:serif="http://www.serif.com/" style="fill-rule:evenodd;clip-rule:evenodd;stroke-linejoin:round;stroke-miterlimit:2;"><g id="Electrum"><path d="M7.332,26.996c-3.249,-2.565 -5.336,-6.539 -5.336,-10.996c-0,-4.448 2.078,-8.415 5.316,-10.981l17.376,0c3.238,2.566 5.316,6.533 5.316,10.981c0,4.457 -2.087,8.431 -5.336,10.996l-17.336,0Zm8.668,-7.249c-1.022,0 -1.852,0.83 -1.852,1.852c-0,1.023 0.83,1.853 1.852,1.853c1.022,-0 1.852,-0.83 1.852,-1.853c0,-1.022 -0.83,-1.852 -1.852,-1.852Z" style="fill:#a3b29c;"/><path d="M14.215,25.501l-5.704,-0c-2.806,-2.217 -4.609,-5.649 -4.609,-9.5c-0,-3.843 1.795,-7.269 4.592,-9.486l15.012,0c2.797,2.217 4.592,5.643 4.592,9.486c0,3.851 -1.803,7.283 -4.609,9.5l-5.704,-0l0,-1.452c0.742,-0.548 1.224,-1.429 1.224,-2.421c-0,-1.661 -1.348,-3.009 -3.009,-3.009c-1.661,-0 -3.009,1.348 -3.009,3.009c0,0.992 0.482,1.873 1.224,2.421l-0,1.452Z" style="fill:#9da698;"/><path d="M27.906,13.845c0.126,0.699 0.192,1.42 0.192,2.156c0,3.851 -1.803,7.283 -4.609,9.5l-5.668,-0l0.283,-0.425c-0,0 2.793,0.022 4.978,0.022c0.139,-0 4.315,-3.374 4.315,-9.835c-0,-1.698 0.247,-1.794 0.509,-1.418Z" style="fill:#bfd8ac;"/><path d="M16,18.153c1.865,0.004 3.512,1.037 3.512,3.495c0,1.872 -1.075,2.126 -1.318,2.554c-0.023,0.15 -0.046,0.936 -0.046,0.936l-0.363,0.325l0,-1.414c0.742,-0.548 1.224,-1.429 1.224,-2.421c-0,-1.661 -1.348,-3.009 -3.009,-3.009c-0.02,-0 -0.04,-0 -0.06,0l0.06,-0.466Z" style="fill:#64796e;"/><path d="M8.206,25.251l0.042,-0.047l5.635,-0l-0,-0.853c-0,0 -1.286,-0.823 -1.286,-2.658c-0,-1.835 1.627,-3.54 3.392,-3.54c1.033,-0 1.649,0.657 1.983,1.203c-0.528,-0.459 -1.218,-0.737 -1.972,-0.737c-1.661,-0 -3.009,1.348 -3.009,3.009c0,0.992 0.482,1.873 1.224,2.421l-0,1.452l-5.704,-0c-0.103,-0.082 -0.205,-0.165 -0.305,-0.25Z" style="fill:#bfd8ac;"/><path d="M8.511,25.501c-2.806,-2.217 -4.609,-5.649 -4.609,-9.5c-0,-3.843 1.795,-7.269 4.592,-9.486l15.012,0c2.62,2.077 4.361,5.215 4.571,8.763c-0.155,0 -0.606,0.001 -0.687,0.002c0,-4.748 -4.32,-8.12 -4.32,-8.12c-0,-0 -14.272,-0.039 -14.272,0.043c0,0.082 -4.231,3.174 -4.231,8.797c-0,5.623 3.944,9.501 3.944,9.501Z" style="fill:#64796e;"/></g></svg>