<?xml version="1.0" encoding="UTF-8" standalone="no"?><!DOCTYPE svg PUBLIC "-//W3C//DTD SVG 1.1//EN" "http://www.w3.org/Graphics/SVG/1.1/DTD/svg11.dtd"><svg width="100%" height="100%" viewBox="0 0 32 32" version="1.1" xmlns="http://www.w3.org/2000/svg" xmlns:xlink="http://www.w3.org/1999/xlink" xml:space="preserve" xmlns:serif="http://www.serif.com/" style="fill-rule:evenodd;clip-rule:evenodd;stroke-linejoin:round;stroke-miterlimit:2;"><g id="Silver"><path d="M16,2.074l15.481,28.008l-30.962,0l15.481,-28.008Zm0,13.926c-1.473,-0 -2.669,1.196 -2.669,2.669c-0,1.474 1.196,2.67 2.669,2.67c1.473,-0 2.669,-1.196 2.669,-2.67c0,-1.473 -1.196,-2.669 -2.669,-2.669Z" style="fill:#696f7f;"/><path d="M16,1.114l14.917,28.008l-29.834,0l14.917,-28.008Zm0,14.886c-1.473,-0 -2.669,1.196 -2.669,2.669c-0,1.474 1.196,2.67 2.669,2.67c1.473,-0 2.669,-1.196 2.669,-2.67c0,-1.473 -1.196,-2.669 -2.669,-2.669Z" style="fill:#878a93;"/><path d="M16,3.705l12.185,24.131l-24.37,0l12.185,-24.131Zm0,12.295c-1.473,-0 -2.669,1.196 -2.669,2.669c-0,1.474 1.196,2.67 2.669,2.67c1.473,-0 2.669,-1.196 2.669,-2.67c0,-1.473 -1.196,-2.669 -2.669,-2.669Z" style="fill:#7b8292;"/><path d="M27.697,27.836l-23.882,0l0.406,-0.804l22.442,-0l-10.663,-21.418l-0,-1.909l12.092,23.946l-0.395,0.185Z" style="fill:#acb1bb;"/><path d="M3.863,27.741l12.137,-24.036l0,1.852l-11.065,21.616l-1.072,0.568Z" style="fill:#2e3853;"/><path d="M16,15.118c1.96,0 3.551,1.591 3.551,3.551c0,1.96 -1.591,3.552 -3.551,3.552c-1.96,-0 -3.551,-1.592 -3.551,-3.552c-0,-1.96 1.591,-3.551 3.551,-3.551Zm0,0.882c-1.473,0 -2.669,1.196 -2.669,2.669c-0,1.474 1.196,2.67 2.669,2.67c1.473,-0 2.669,-1.196 2.669,-2.67c0,-1.473 -1.196,-2.669 -2.669,-2.669Z" style="fill:#878a93;"/><path d="M18.536,16.184c0.628,0.641 1.015,1.518 1.015,2.485c0,1.96 -1.591,3.552 -3.551,3.552c-0.967,-0 -1.845,-0.388 -2.485,-1.016l0.309,-0.309c0.561,0.549 1.33,0.887 2.176,0.887c1.719,0 3.114,-1.395 3.114,-3.114c-0,-0.846 -0.339,-1.614 -0.887,-2.176l0.309,-0.309Z" style="fill:#2e3853;"/><path d="M13.515,21.205c-0.658,-0.644 -1.066,-1.543 -1.066,-2.536c-0,-1.96 1.591,-3.551 3.551,-3.551c0.993,0 1.891,0.408 2.536,1.066l-0.309,0.309c-0.566,-0.578 -1.355,-0.937 -2.227,-0.937c-1.719,-0 -3.114,1.395 -3.114,3.113c0,0.873 0.359,1.661 0.938,2.227l-0.309,0.309Z" style="fill:#acb1bb;"/></g></svg>