<?xml version="1.0" encoding="UTF-8" standalone="no"?><!DOCTYPE svg PUBLIC "-//W3C//DTD SVG 1.1//EN" "http://www.w3.org/Graphics/SVG/1.1/DTD/svg11.dtd"><svg width="100%" height="100%" viewBox="0 0 32 32" version="1.1" xmlns="http://www.w3.org/2000/svg" xmlns:xlink="http://www.w3.org/1999/xlink" xml:space="preserve" xmlns:serif="http://www.serif.com/" style="fill-rule:evenodd;clip-rule:evenodd;stroke-linejoin:round;stroke-miterlimit:2;"><g id="Gold"><path d="M2.269,5.319l0,-2.521l28.329,0l0,2.749c-3.073,2.841 -4.999,6.905 -4.999,11.416c-0,4.511 1.926,8.575 4.999,11.416l0,2.748l-28.329,0l0,-2.52c3.221,-2.849 5.252,-7.011 5.252,-11.644c0,-4.633 -2.031,-8.796 -5.252,-11.644Z" style="fill:#b16f11;"/><path d="M2.269,4.359l0,-2.521l28.329,0l0,2.749c-3.073,2.841 -4.999,6.905 -4.999,11.416c-0,4.511 1.926,8.575 4.999,11.416l0,2.748l-28.329,0l0,-2.52c3.221,-2.849 5.252,-7.011 5.252,-11.644c0,-4.633 -2.031,-8.796 -5.252,-11.644Z" style="fill:#d9b756;"/><path d="M27.683,27.964l-22.168,-0c2.496,-3.338 3.974,-7.48 3.974,-11.964c0,-4.482 -1.476,-8.621 -3.97,-11.958l22.16,0c-2.493,3.337 -3.97,7.476 -3.97,11.958c-0,4.484 1.478,8.626 3.974,11.964Z" style="fill:#b67b30;fill-opacity:0.65;"/><path d="M25.324,4.042l2.355,0c-2.493,3.337 -3.97,7.476 -3.97,11.958c-0,4.484 1.478,8.626 3.974,11.964l-22.168,-0c0.234,-0.313 0.459,-0.633 0.675,-0.96l19.813,-0c-2.496,-3.338 -3.974,-7.48 -3.974,-11.964c-0,-4.061 1.213,-7.841 3.295,-10.998Z" style="fill:#f4d065;"/><path d="M24.514,5.002l-17.555,0c2.494,3.337 3.97,7.476 3.97,11.958c0,3.376 -0.837,6.557 -2.316,9.348l-2.887,1.369c2.368,-3.287 3.763,-7.32 3.763,-11.677c0,-4.482 -1.476,-8.621 -3.97,-11.958l20.142,0l-1.147,0.96Z" style="fill:#ac8f3b;"/></g></svg>