<?xml version="1.0" encoding="UTF-8" standalone="no"?><!DOCTYPE svg PUBLIC "-//W3C//DTD SVG 1.1//EN" "http://www.w3.org/Graphics/SVG/1.1/DTD/svg11.dtd"><svg width="100%" height="100%" viewBox="0 0 32 32" version="1.1" xmlns="http://www.w3.org/2000/svg" xmlns:xlink="http://www.w3.org/1999/xlink" xml:space="preserve" xmlns:serif="http://www.serif.com/" style="fill-rule:evenodd;clip-rule:evenodd;stroke-linejoin:round;stroke-miterlimit:2;"><g id="Copper"><path d="M30.004,6.664l0,19.632l-4.668,4.668l-18.672,0l-4.668,-4.668l-0,-19.632l4.668,-4.668l18.672,-0l4.668,4.668Zm-14.004,6.289c-1.682,0 -3.047,1.365 -3.047,3.047c0,1.682 1.365,3.047 3.047,3.047c1.682,-0 3.047,-1.365 3.047,-3.047c-0,-1.682 -1.365,-3.047 -3.047,-3.047Z" style="fill:#955236;"/><path d="M30.004,6.664l0,18.672l-4.668,4.668l-18.672,0l-4.668,-4.668l-0,-18.672l4.668,-4.668l18.672,-0l4.668,4.668Zm-14.004,6.289c-1.682,0 -3.047,1.365 -3.047,3.047c0,1.682 1.365,3.047 3.047,3.047c1.682,-0 3.047,-1.365 3.047,-3.047c-0,-1.682 -1.365,-3.047 -3.047,-3.047Z" style="fill:#bd6c4b;"/><path d="M28.001,8l-0,16l-4.001,4.001l-16,-0l-4.001,-4.001l0,-16l4.001,-4.001l16,0l4.001,4.001Zm-12.001,4.953c-1.682,0 -3.047,1.365 -3.047,3.047c0,1.682 1.365,3.047 3.047,3.047c1.682,-0 3.047,-1.365 3.047,-3.047c-0,-1.682 -1.365,-3.047 -3.047,-3.047Z" style="fill:#b15935;"/><path d="M28.001,14.985l-0,9.015l-4.001,4.001l-9.102,-0l1.102,-0.522l7.906,-0.113l3.415,-3.781l-0,-9.99l0.68,1.39Z" style="fill:#d1844b;"/><path d="M3.999,16.93l0,-8.93l4.001,-4.001l8.25,0l-1.224,0.882l-6.42,0l-3.64,3.64l0,6.999l-0.967,1.41Z" style="fill:#955236;"/><path d="M16,11.443c2.515,0 4.557,2.042 4.557,4.557c-0,2.515 -2.042,4.557 -4.557,4.557c-2.515,-0 -4.557,-2.042 -4.557,-4.557c0,-2.515 2.042,-4.557 4.557,-4.557Zm0,1.51c-1.682,0 -3.047,1.365 -3.047,3.047c0,1.682 1.365,3.047 3.047,3.047c1.682,-0 3.047,-1.365 3.047,-3.047c-0,-1.682 -1.365,-3.047 -3.047,-3.047Z" style="fill:#bd6c4b;"/><path d="M19.221,12.779c0.825,0.824 1.336,1.964 1.336,3.221c-0,2.515 -2.042,4.557 -4.557,4.557c-1.306,-0 -2.484,-0.551 -3.315,-1.432l0.468,-0.441c0.714,0.757 1.726,1.229 2.847,1.229c2.16,0 3.913,-1.753 3.913,-3.913c0,-1.08 -0.438,-2.058 -1.147,-2.766l0.455,-0.455Z" style="fill:#955236;"/><path d="M13.034,19.458c-0.974,-0.836 -1.591,-2.076 -1.591,-3.458c0,-2.515 2.042,-4.557 4.557,-4.557c1.257,0 2.397,0.511 3.221,1.336l-0.455,0.455c-0.708,-0.709 -1.686,-1.147 -2.766,-1.147c-2.16,-0 -3.913,1.753 -3.913,3.913c-0,1.187 0.53,2.252 1.366,2.969l-0.419,0.489Z" style="fill:#d1844b;"/></g></svg>