<?xml version="1.0" encoding="UTF-8" standalone="no"?><!DOCTYPE svg PUBLIC "-//W3C//DTD SVG 1.1//EN" "http://www.w3.org/Graphics/SVG/1.1/DTD/svg11.dtd"><svg width="100%" height="100%" viewBox="0 0 32 32" version="1.1" xmlns="http://www.w3.org/2000/svg" xmlns:xlink="http://www.w3.org/1999/xlink" xml:space="preserve" xmlns:serif="http://www.serif.com/" style="fill-rule:evenodd;clip-rule:evenodd;stroke-linejoin:round;stroke-miterlimit:2;"><g id="Platinum"><path d="M29.948,13.294l-0,8.085l-9.905,9.905l-8.086,0l-9.905,-9.905l0,-8.085l9.905,-9.905l8.086,-0l9.905,9.905Z" style="fill:#4e5656;"/><path d="M29.948,11.971l-0,8.086l-9.905,9.904l-8.086,0l-9.905,-9.904l0,-8.086l9.905,-9.905l8.086,0l9.905,9.905Z" style="fill:#7a8687;"/><path d="M27.771,12.602l-0,6.824l-8.359,8.358l-6.824,0l-8.359,-8.358l0,-6.824l8.359,-8.359l6.824,0l8.359,8.359Z" style="fill:#707779;"/><path d="M18.313,4.243l1.099,0l8.359,8.359l-0,6.824l-8.359,8.358l-6.824,0l-8.359,-8.358l0,-0.14l7.538,7.538l6.546,0l8.018,-8.018l-0,-6.545l-8.018,-8.018Z" style="fill:#8fa1a4;"/><path d="M5.189,20.386l-0.96,-0.96l0,-6.824l8.359,-8.359l6.824,0l0.96,0.96l-6.824,0l-8.359,8.359l0,6.824Z" style="fill:#4e5656;"/></g></svg>